<?xml version="1.0" encoding="utf-8"?>
<!-- Generator: Adobe Illustrator 21.0.0, SVG Export Plug-In . SVG Version: 6.00 Build 0)  -->
<svg version="1.1" id="Layer_1" xmlns="http://www.w3.org/2000/svg" xmlns:xlink="http://www.w3.org/1999/xlink" x="0px" y="0px"
	 viewBox="0 0 60 60" style="enable-background:new 0 0 60 60;" xml:space="preserve">
<style type="text/css">
	.st0{fill:#741242;}
</style>
<path class="st0" d="M60,30.1C60.4,46,47.1,60.6,29.2,60.2C12.3,59.8,0,45.5,0,30C0,14.8,12-0.3,30.1-0.2
	C47.3-0.2,60.5,13.9,60,30.1z M12.9,43.2c0.2,0.2,0.3,0.4,0.4,0.4c0.3,0.2,0.6,0.4,1,0.6c4,2,8.3,2.8,12.8,2.3
	c7.2-0.8,12.6-4.4,16.4-10.4c1.9-3.1,2.7-6.5,3.4-10c0.3-1.8,0.6-3.6,2.3-4.9c0.6-0.4,0.8-1.3,1.2-2c-0.1-0.1-0.1-0.2-0.2-0.2
	c-0.8,0.2-1.5,0.3-2.6,0.5c0.5-0.7,1-1.1,1.2-1.7c0.3-0.5,0.4-1.1,0.7-2c-1.3,0.4-2.2,0.6-3.1,1c-1.2,0.6-2.1,0.3-3.1-0.4
	c-4.4-3.1-10.7-0.9-12.2,4.2c-0.4,1.2-0.5,2.5-0.8,3.7c-6-0.4-10.8-3.4-15-7.7c-1.3,1.5-1.9,3.1-1.5,4.9c0.5,1.7,1.2,3.2,1.9,4.8
	c-0.5-0.1-1.1-0.1-1.8-0.2c-0.3,3.3,1.5,5.5,4,7.3c-1.4,1-1.5,1.1-0.5,2.4c0.5,0.7,1.1,1.5,1.8,2c1.1,0.8,2.3,1.3,3.8,2.1
	c-1.7,0.7-3.2,1.4-4.9,1.9C16.5,42.6,14.8,42.8,12.9,43.2z"/>
</svg>
