<?xml version="1.0" encoding="utf-8"?>
<!-- Generator: Adobe Illustrator 21.0.0, SVG Export Plug-In . SVG Version: 6.00 Build 0)  -->
<svg version="1.1" id="Layer_1" xmlns="http://www.w3.org/2000/svg" xmlns:xlink="http://www.w3.org/1999/xlink" x="0px" y="0px"
	 viewBox="0 0 60 60" style="enable-background:new 0 0 60 60;" xml:space="preserve">
<style type="text/css">
	.st0{fill:#FAB642;}
</style>
<path class="st0" d="M59.8,30c0.4,15.8-12.3,30.1-29.9,30C13.1,59.9-0.4,46.8,0.2,28.9c0.5-16.1,13-29,30.2-28.9S60.2,14.4,59.8,30z
	 M38.3,11.2c-2.6,0-5-0.2-7.4,0c-4,0.3-6.2,2.8-6.6,6.7c-0.1,1.5-0.1,2.9-0.1,4.4c0,0.4,0,0.7-0.1,1.1c-1,0.1-1.8,0.3-2.7,0.3
	c-0.7,0-0.9,0.3-0.9,1c0,1.2,0,2.4,0,3.6c0,2.6,0,2.7,2.6,3c1,0.1,1.2,0.5,1.2,1.4c0,5,0,9.9,0,14.9c0,0.8,0,1.6,0,2.6
	c2.6,0,4.9,0,7.3,0c1.2,0,1.3-0.6,1.3-1.5c0-5.4,0-10.7,0-16.1c0-0.4,0-0.8,0-1.2c1.6-0.1,3-0.3,4.3-0.3c0.6,0,0.8-0.3,0.9-0.8
	c0.1-1.8,0.2-3.7,0.3-5.5c0-0.6-0.2-1-0.9-1c-1.2,0-2.4,0-3.7-0.1c-0.3,0-0.7-0.4-0.7-0.6c-0.1-1.4,0-2.8,0-4.3
	c1.5-0.2,3-0.4,4.4-0.7c0.3-0.1,0.8-0.4,0.8-0.7C38.3,15.4,38.3,13.4,38.3,11.2z"/>
</svg>
