<?xml version="1.0" encoding="utf-8"?>
<!-- Generator: Adobe Illustrator 21.0.0, SVG Export Plug-In . SVG Version: 6.00 Build 0)  -->
<svg version="1.1" id="Layer_1" xmlns="http://www.w3.org/2000/svg" xmlns:xlink="http://www.w3.org/1999/xlink" x="0px" y="0px"
	 viewBox="0 0 60 60" style="enable-background:new 0 0 60 60;" xml:space="preserve">
<style type="text/css">
	.st0{fill:#E7B44C;}
	.st1{fill:#FFFFFF;}
</style>
<g>
	<path class="st0" d="M30.1,0C46.6,0,60.4,12.7,60,31c-0.4,16.7-13.4,29.7-31,29.2C12.6,59.8-0.1,46.6,0,29.9
		C0.1,13.1,13.3-0.2,30.1,0z M46.6,30.1L46.6,30.1c0-2.8,0-5.7,0-8.5c0-4.2-3.9-8.1-8.1-8.1c-5.6,0-11.3,0-16.9,0.1
		c-4.8,0-8.3,3.6-8.3,8.3c0,5.6,0,11.2,0,16.8c0,5.3,3.3,8.7,8.7,8.7s10.8,0,16.2,0c5,0,8.4-3.5,8.4-8.4
		C46.6,35.9,46.6,33,46.6,30.1z"/>
	<path class="st0" d="M37.9,28.4c1.7,0,3.2,0,4.9,0c0.1,0.6,0.2,1.2,0.2,1.8c0,2.7,0,5.4,0,8.1c0,3.3-1.8,5.3-5.2,5.4
		c-5.3,0.1-10.7,0.1-16,0c-3,0-5-2.1-5-5.1c0-3.3,0-6.7,0-10.2c1.7,0,3.3,0,5,0c0.1,0,0.3,0.6,0.3,0.9c-0.2,2.5-0.2,4.9,1.5,7
		c2.2,2.8,6.3,4.1,9.3,2.8c3.4-1.4,5.6-5,5.2-8.6C38.1,29.9,38,29.2,37.9,28.4z"/>
	<path class="st0" d="M16.8,24.6c0.1-1.4,0-2.6,0.2-3.8c0.5-2.3,2.3-3.7,4.6-3.7c5.5,0,11.1,0,16.6,0c2.4,0,4.2,1.6,4.6,4
		c0.2,1.1,0,2.2,0,3.4c-2.4,0-4.8,0.1-7.2,0c-0.9,0-1.9-0.4-2.8-0.8c-1.9-0.9-3.7-0.7-5.6-0.1c-1.6,0.5-3.3,0.9-5,1
		C20.5,24.8,18.8,24.6,16.8,24.6z M38.6,23.4c2.4,0,2.9-0.4,2.9-2.7c0-1.5-1.2-2.7-2.8-2.7c-1.9,0-2.6,0.6-2.5,2.5
		c0,0.1,0,0.3,0,0.4C36.2,23.4,36.2,23.4,38.6,23.4z"/>
	<path class="st0" d="M26.2,31.1c0-2.6,1.3-3.9,3.8-3.9c2.7,0,4.2,1.5,4.2,4.1c0,2.4-1.8,4.1-4.1,4.1C27.6,35.4,26.1,33.8,26.2,31.1
		z"/>
	<polygon class="st0" points="41.6,23.5 35.2,23.5 35.2,17.8 40.7,18 41.7,20.1 	"/>
	<path class="st1" d="M38.7,22.2c-1.3,0-1.3,0-1.3-1.3c0-0.1,0-0.2,0-0.2c0-1,0.3-1.4,1.4-1.4c0.9,0,1.5,0.6,1.5,1.5
		C40.3,21.9,40,22.2,38.7,22.2z"/>
</g>
</svg>
